# Blender 4.2.1 LTS
# www.blender.org
o Sphere.002
v 0.206465 -0.126333 -1.457308
v 0.004025 -0.168215 -2.142444
v 0.139685 -0.174990 -2.095524
v 0.000000 -0.040915 -1.043705
v 0.202514 0.031782 -1.289384
v -0.113056 0.112322 -1.261468
v 0.146283 -0.076878 -1.164952
v -0.166868 0.029624 -1.885203
v -0.054161 -0.091503 -2.715516
v -0.104947 0.099518 -2.178648
v -0.035327 0.174485 -1.401152
v -0.011162 0.155473 -2.063988
v 0.183179 -0.023109 -2.096349
v -0.020161 0.044489 -2.750657
v 0.070434 -0.072740 -2.369441
v -0.216047 -0.044737 -1.521375
v 0.069170 -0.223255 -1.863937
v 0.001607 -0.261250 -1.539369
v -0.030529 -0.189034 -1.170354
v 0.075910 0.163836 -1.855005
v 0.117719 0.117669 -1.317570
v 0.184007 0.086743 -1.617036
v -0.061971 -0.011555 -2.184612
v -0.175647 0.088129 -1.518827
v 0.056697 0.000490 -2.996038
v 0.004025 -0.168215 -2.142444
v -0.187621 -0.030676 -1.237732
v -0.111728 -0.136827 -1.167437
v 0.190498 -0.126821 -1.892451
v -0.123797 -0.151187 -2.025791
v -0.108340 -0.230752 -1.442646
v -0.188264 -0.158495 -1.462971
v 0.073416 -0.246181 -1.395931
v 0.109550 -0.185825 -1.231485
vn 0.9199 -0.3900 0.0412
vn 0.1463 0.6177 -0.7727
vn 0.5946 -0.7562 -0.2730
vn 0.0079 0.1150 0.9933
vn 0.8770 0.3473 0.3322
vn -0.4260 0.7906 0.4398
vn 0.7658 -0.1534 0.6245
vn -0.9842 -0.0548 -0.1686
vn -0.0902 -0.0063 -0.9959
vn -0.7624 0.6292 -0.1513
vn -0.1171 0.9795 0.1636
vn -0.1070 0.9883 -0.1084
vn 0.9812 0.0854 -0.1731
vn -0.7888 0.5106 -0.3421
vn 0.5032 -0.8186 -0.2769
vn -0.9997 0.0084 -0.0250
vn 0.1226 -0.9861 -0.1121
vn -0.0425 -0.9986 -0.0325
vn -0.1177 -0.8327 0.5411
vn 0.4305 0.8978 -0.0931
vn 0.4079 0.8495 0.3346
vn 0.8394 0.5433 -0.0141
vn -0.9550 -0.2504 -0.1590
vn -0.7940 0.6080 0.0047
vn 0.0538 -0.0266 -0.9982
vn -0.6502 -0.4898 -0.5808
vn -0.9094 0.0764 0.4088
vn -0.6653 -0.4988 0.5556
vn 0.9212 -0.3867 -0.0426
vn -0.8232 -0.5296 -0.2045
vn -0.4513 -0.8865 0.1019
vn -0.8575 -0.5117 0.0533
vn 0.3134 -0.9411 0.1273
vn 0.5418 -0.7366 0.4048
vt 0.799266 0.944724
vt 0.785896 0.938031
vt 0.764871 0.947719
vt 0.790250 0.954972
vt 0.797588 0.965011
vt 0.792145 0.962421
vt 0.771151 0.962361
vt 0.753066 0.944874
vt 0.764599 0.955287
vt 0.859406 0.950650
vt 0.908890 0.949922
vt 0.844603 0.956412
vt 0.791617 0.925630
vt 0.832175 0.927118
vt 0.851180 0.927800
vt 0.786383 0.948166
vt 0.828685 0.937798
vt 0.848163 0.945914
vt 0.797351 0.961245
vt 0.912166 0.946753
vt 0.858851 0.954656
vt 0.773363 0.955411
vt 0.778592 0.933901
vt 0.806505 0.927723
vt 0.775965 0.925998
vt 0.935037 0.939589
vt 0.876634 0.938309
vt 0.855476 0.944498
vt 0.770569 0.934663
vt 0.764367 0.931239
vt 0.851103 0.931854
vt 0.829517 0.938427
vt 0.831500 0.960427
s 1
f 18/1/18 33/2/33 19/3/19
f 19/3/19 31/4/31 18/1/18
f 16/5/16 32/6/32 27/7/27
f 4/8/4 28/9/28 19/3/19
f 23/10/23 9/11/9 30/12/30
f 1/13/1 29/14/29 13/15/13
f 11/16/11 20/17/20 12/18/12
f 24/19/24 11/16/11 12/18/12
f 14/20/14 10/21/10 12/18/12
f 6/22/6 24/19/24 27/7/27
f 11/16/11 24/19/24 6/22/6
f 11/16/11 6/22/6 4/8/4
f 21/23/21 20/17/20 11/16/11
f 22/24/22 20/17/20 21/23/21
f 22/24/22 21/23/21 5/25/5
f 20/17/20 22/24/22 14/20/14
f 4/8/4 5/25/5 21/23/21
f 23/10/23 25/26/25 15/27/15
f 15/27/15 2/28/2 26/28/26
f 23/10/23 15/27/15 9/11/9
f 15/27/15 26/28/26 9/11/9
f 34/29/34 7/30/7 4/8/4
f 13/15/13 5/25/5 1/13/1
f 2/28/2 3/31/3 17/32/17
f 26/28/26 2/28/2 17/32/17
f 30/12/30 17/32/17 18/1/18
f 31/4/31 32/6/32 30/12/30
f 33/2/33 18/1/18 17/32/17
f 33/2/33 1/13/1 34/29/34
f 28/9/28 4/8/4 27/7/27
f 16/5/16 23/10/23 30/12/30
f 3/31/3 13/15/13 29/14/29
f 27/7/27 4/8/4 6/22/6
f 8/33/8 24/19/24 10/21/10
f 20/17/20 14/20/14 12/18/12
f 12/18/12 10/21/10 24/19/24
f 21/23/21 11/16/11 4/8/4
f 14/20/14 22/24/22 25/26/25
f 13/15/13 25/26/25 22/24/22
f 23/10/23 14/20/14 25/26/25
f 14/20/14 23/10/23 8/33/8
f 16/5/16 8/33/8 23/10/23
f 10/21/10 14/20/14 8/33/8
f 24/19/24 8/33/8 16/5/16
f 16/5/16 27/7/27 24/19/24
f 15/27/15 13/15/13 3/31/3
f 7/30/7 5/25/5 4/8/4
f 3/31/3 2/28/2 15/27/15
f 30/12/30 9/11/9 26/28/26
f 30/12/30 32/6/32 16/5/16
f 32/6/32 28/9/28 27/7/27
f 13/15/13 22/24/22 5/25/5
f 33/2/33 17/32/17 3/31/3
f 30/12/30 26/28/26 17/32/17
f 28/9/28 31/4/31 19/3/19
f 33/2/33 3/31/3 29/14/29
f 33/2/33 29/14/29 1/13/1
f 4/8/4 19/3/19 34/29/34
f 19/3/19 33/2/33 34/29/34
f 7/30/7 1/13/1 5/25/5
f 15/27/15 25/26/25 13/15/13
f 34/29/34 1/13/1 7/30/7
f 31/4/31 30/12/30 18/1/18
f 31/4/31 28/9/28 32/6/32
