# Blender 4.2.1 LTS
# www.blender.org
o goal_ring.001
v 11.000000 0.000000 0.000000
v 10.623489 0.000000 0.781832
v 9.777479 0.000000 0.974928
v 9.099031 0.000000 0.433884
v 9.099031 -0.000000 -0.433884
v 9.777479 -0.000000 -0.974928
v 10.623489 -0.000000 -0.781832
v 5.500000 9.526279 -0.000001
v 5.311744 9.200212 0.781831
v 4.888739 8.467546 0.974927
v 4.549515 7.879993 0.433883
v 4.549515 7.879993 -0.433884
v 4.888739 8.467546 -0.974929
v 5.311744 9.200212 -0.781832
v -5.499999 9.526280 -0.000001
v -5.311743 9.200212 0.781831
v -4.888738 8.467546 0.974927
v -4.549514 7.879993 0.433883
v -4.549514 7.879993 -0.433884
v -4.888738 8.467546 -0.974929
v -5.311743 9.200212 -0.781832
v -11.000000 0.000001 -0.000000
v -10.623489 0.000001 0.781832
v -9.777479 0.000001 0.974928
v -9.099031 0.000001 0.433884
v -9.099031 0.000001 -0.433884
v -9.777479 0.000001 -0.974928
v -10.623489 0.000001 -0.781832
v -5.499999 -9.526280 0.000001
v -5.311743 -9.200212 0.781832
v -4.888738 -8.467546 0.974929
v -4.549514 -7.879993 0.433884
v -4.549514 -7.879993 -0.433883
v -4.888738 -8.467546 -0.974927
v -5.311743 -9.200212 -0.781831
v 5.500000 -9.526279 0.000001
v 5.311744 -9.200212 0.781832
v 4.888739 -8.467546 0.974929
v 4.549515 -7.879993 0.433884
v 4.549515 -7.879993 -0.433883
v 4.888739 -8.467546 -0.974927
v 5.311744 -9.200212 -0.781831
vn 0.7993 0.4615 0.3849
vn 0.2207 0.1274 0.9670
vn -0.5866 -0.3387 0.7356
vn -0.8660 -0.5000 -0.0000
vn -0.5866 -0.3387 -0.7356
vn 0.2207 0.1274 -0.9670
vn 0.7993 0.4615 -0.3849
vn -0.0000 0.9230 0.3849
vn -0.0000 0.2549 0.9670
vn -0.0000 -0.6774 0.7356
vn -0.0000 -1.0000 -0.0000
vn -0.0000 -0.6774 -0.7356
vn -0.0000 0.2549 -0.9670
vn -0.0000 0.9229 -0.3849
vn -0.7993 0.4615 0.3849
vn -0.2207 0.1274 0.9670
vn 0.5866 -0.3387 0.7356
vn 0.8660 -0.5000 -0.0000
vn 0.5866 -0.3387 -0.7356
vn -0.2207 0.1274 -0.9670
vn -0.7993 0.4615 -0.3849
vn -0.7993 -0.4615 0.3849
vn -0.2207 -0.1274 0.9670
vn 0.5866 0.3387 0.7356
vn 0.8660 0.5000 -0.0000
vn 0.5866 0.3387 -0.7356
vn -0.2207 -0.1274 -0.9670
vn -0.7993 -0.4615 -0.3849
vn -0.0000 -0.9229 0.3849
vn -0.0000 -0.2549 0.9670
vn -0.0000 0.6774 0.7356
vn -0.0000 1.0000 -0.0000
vn -0.0000 0.6774 -0.7356
vn -0.0000 -0.2549 -0.9670
vn -0.0000 -0.9229 -0.3849
vn 0.7993 -0.4615 0.3849
vn 0.2207 -0.1274 0.9670
vn -0.5866 0.3387 0.7356
vn -0.8660 0.5000 -0.0000
vn -0.5866 0.3387 -0.7356
vn 0.2207 -0.1274 -0.9670
vn 0.7993 -0.4615 -0.3849
vn -0.0000 0.9229 0.3849
vn -0.0000 -0.9230 -0.3849
vt 0.039961 0.969284
vt 0.031863 0.976225
vt 0.031863 0.969284
vt 0.039961 0.976225
vt 0.031863 0.983166
vt 0.039961 0.983166
vt 0.031863 0.990107
vt 0.039961 0.941520
vt 0.031863 0.948461
vt 0.031863 0.941520
vt 0.039961 0.948461
vt 0.031863 0.955402
vt 0.039961 0.955402
vt 0.031863 0.962343
vt 0.048058 0.969284
vt 0.048058 0.983166
vt 0.039961 0.990107
vt 0.048058 0.941520
vt 0.048058 0.955402
vt 0.039961 0.962343
vt 0.048058 0.962343
vt 0.056156 0.969284
vt 0.048058 0.976225
vt 0.056156 0.976225
vt 0.056156 0.983166
vt 0.048058 0.990107
vt 0.056156 0.941520
vt 0.048058 0.948461
vt 0.056156 0.948461
vt 0.056156 0.955402
vt 0.056156 0.962343
vt 0.007569 0.969284
vt 0.015667 0.976225
vt 0.007569 0.976225
vt 0.007569 0.983166
vt 0.015667 0.983166
vt 0.007569 0.990107
vt 0.015667 0.941520
vt 0.007569 0.948461
vt 0.007569 0.941520
vt 0.015667 0.955402
vt 0.007569 0.955402
vt 0.007569 0.962343
vt 0.015667 0.962343
vt 0.023765 0.969284
vt 0.015667 0.969284
vt 0.023765 0.976225
vt 0.023765 0.983166
vt 0.015667 0.990107
vt 0.023765 0.941520
vt 0.015667 0.948461
vt 0.023765 0.948461
vt 0.023765 0.955402
vt 0.023765 0.962343
vt 0.023765 0.990107
vt 0.056156 0.990107
s 0
f 8/1/1 2/2/1 1/3/1
f 9/4/2 3/5/2 2/2/2
f 10/6/3 4/7/3 3/5/3
f 11/8/4 5/9/4 4/10/4
f 12/11/5 6/12/5 5/9/5
f 13/13/6 7/14/6 6/12/6
f 7/14/7 8/1/7 1/3/7
f 15/15/8 9/4/8 8/1/8
f 9/4/9 17/16/9 10/6/9
f 17/16/10 11/17/10 10/6/10
f 18/18/11 12/11/11 11/8/11
f 12/11/12 20/19/12 13/13/12
f 20/19/13 14/20/13 13/13/13
f 21/21/14 8/1/14 14/20/14
f 22/22/15 16/23/15 15/15/15
f 23/24/16 17/16/16 16/23/16
f 24/25/17 18/26/17 17/16/17
f 25/27/18 19/28/18 18/18/18
f 26/29/19 20/19/19 19/28/19
f 27/30/20 21/21/20 20/19/20
f 28/31/21 15/15/21 21/21/21
f 22/32/22 30/33/22 23/34/22
f 30/33/23 24/35/23 23/34/23
f 31/36/24 25/37/24 24/35/24
f 32/38/25 26/39/25 25/40/25
f 26/39/26 34/41/26 27/42/26
f 34/41/27 28/43/27 27/42/27
f 35/44/28 22/32/28 28/43/28
f 36/45/29 30/33/29 29/46/29
f 37/47/30 31/36/30 30/33/30
f 38/48/31 32/49/31 31/36/31
f 39/50/32 33/51/32 32/38/32
f 40/52/33 34/41/33 33/51/33
f 41/53/34 35/44/34 34/41/34
f 42/54/35 29/46/35 35/44/35
f 36/45/36 2/2/36 37/47/36
f 2/2/37 38/48/37 37/47/37
f 3/5/38 39/55/38 38/48/38
f 4/10/39 40/52/39 39/50/39
f 5/9/40 41/53/40 40/52/40
f 6/12/41 42/54/41 41/53/41
f 7/14/42 36/45/42 42/54/42
f 8/1/1 9/4/1 2/2/1
f 9/4/2 10/6/2 3/5/2
f 10/6/3 11/17/3 4/7/3
f 11/8/4 12/11/4 5/9/4
f 12/11/5 13/13/5 6/12/5
f 13/13/6 14/20/6 7/14/6
f 7/14/7 14/20/7 8/1/7
f 15/15/43 16/23/43 9/4/43
f 9/4/9 16/23/9 17/16/9
f 17/16/10 18/26/10 11/17/10
f 18/18/11 19/28/11 12/11/11
f 12/11/12 19/28/12 20/19/12
f 20/19/13 21/21/13 14/20/13
f 21/21/14 15/15/14 8/1/14
f 22/22/15 23/24/15 16/23/15
f 23/24/16 24/25/16 17/16/16
f 24/25/17 25/56/17 18/26/17
f 25/27/18 26/29/18 19/28/18
f 26/29/19 27/30/19 20/19/19
f 27/30/20 28/31/20 21/21/20
f 28/31/21 22/22/21 15/15/21
f 22/32/22 29/46/22 30/33/22
f 30/33/23 31/36/23 24/35/23
f 31/36/24 32/49/24 25/37/24
f 32/38/25 33/51/25 26/39/25
f 26/39/26 33/51/26 34/41/26
f 34/41/27 35/44/27 28/43/27
f 35/44/28 29/46/28 22/32/28
f 36/45/29 37/47/29 30/33/29
f 37/47/30 38/48/30 31/36/30
f 38/48/31 39/55/31 32/49/31
f 39/50/32 40/52/32 33/51/32
f 40/52/33 41/53/33 34/41/33
f 41/53/34 42/54/34 35/44/34
f 42/54/44 36/45/44 29/46/44
f 36/45/36 1/3/36 2/2/36
f 2/2/37 3/5/37 38/48/37
f 3/5/38 4/7/38 39/55/38
f 4/10/39 5/9/39 40/52/39
f 5/9/40 6/12/40 41/53/40
f 6/12/41 7/14/41 42/54/41
f 7/14/42 1/3/42 36/45/42
