# Blender 4.2.1 LTS
# www.blender.org
o ship
v 0.000000 0.833922 0.044946
v 0.433013 -0.400000 0.380635
v 0.000000 -0.353981 -0.832708
v 0.000000 0.000000 3.380635
v 0.000000 -0.200000 3.132785
v 0.330804 -0.253666 -0.832708
v 0.329826 0.131315 -0.832708
v 0.433013 -0.250000 1.380635
v 0.000000 0.625000 -0.619365
v 0.000000 0.400000 0.880635
v 0.000000 -0.400000 1.256710
v 0.433013 -0.091568 -0.832708
v 0.270020 0.325000 0.498306
v 0.108253 0.729461 -0.287209
v 0.000000 0.729461 -0.287209
v 0.351516 0.287500 -0.060530
v 0.000000 0.242704 -0.832708
v 0.000000 -0.500000 0.318672
v 0.216506 -0.125000 2.380635
v 0.433013 0.126570 0.273964
v 2.236542 -0.511730 -1.863587
v 0.748786 0.058910 -0.107339
v 0.820050 -0.187478 0.590226
v 0.751865 -0.305182 -0.038003
v 0.677522 -0.075481 -0.804904
v 0.243265 -0.186540 -1.332708
v 0.000000 -0.260309 -1.332708
v 0.000000 -0.040915 -0.646278
v 0.318427 -0.067337 -1.332708
v 0.242546 0.096566 -1.332708
v 0.000000 0.178479 -1.332708
v 0.016898 0.408977 0.830382
v 0.248357 0.344687 0.502651
v 0.016898 0.780933 0.114033
v 0.111908 0.718064 -0.257147
v 0.015254 0.810640 0.038028
v 0.264413 0.341807 0.455880
v 0.337328 0.307829 -0.046862
v 0.009876 0.266570 -0.795927
v 0.010981 0.606899 -0.606685
v 0.110556 0.703482 -0.298573
v 0.329720 0.307478 -0.095782
v -0.433013 -0.400000 0.380635
v -0.330804 -0.253666 -0.832708
v -0.329826 0.131315 -0.832708
v -0.433013 -0.250000 1.380635
v -0.433013 -0.091568 -0.832708
v -0.270020 0.325000 0.498306
v -0.108253 0.729461 -0.287209
v -0.351516 0.287500 -0.060530
v -0.216506 -0.125000 2.380635
v -0.433013 0.126570 0.273964
v -2.236542 -0.511730 -1.863587
v -0.748786 0.058910 -0.107339
v -0.820050 -0.187478 0.590226
v -0.751865 -0.305182 -0.038003
v -0.677522 -0.075481 -0.804904
v -0.243265 -0.186540 -1.332708
v -0.318427 -0.067337 -1.332708
v -0.242546 0.096566 -1.332708
v -0.016898 0.408977 0.830382
v -0.248357 0.344687 0.502651
v -0.016898 0.780933 0.114033
v -0.111908 0.718064 -0.257147
v -0.015254 0.810640 0.038028
v -0.264413 0.341807 0.455880
v -0.337328 0.307829 -0.046862
v -0.009876 0.266570 -0.795927
v -0.010981 0.606899 -0.606685
v -0.110556 0.703482 -0.298573
v -0.329720 0.307478 -0.095782
vn 0.2695 -0.9630 -0.0029
vn 0.2810 -0.9522 0.1198
vn 0.2330 -0.9721 -0.0255
vn 0.9259 -0.2940 0.2372
vn 0.9758 0.0869 0.2004
vn 0.9735 0.0444 0.2243
vn 0.2944 -0.9482 0.1191
vn 0.2997 -0.9487 0.1011
vn -0.9046 0.0602 -0.4220
vn -0.0000 -0.0039 -1.0000
vn -0.6409 -0.6769 -0.3620
vn -0.0000 0.9539 -0.3000
vn 0.6768 0.7173 -0.1655
vn 0.9729 -0.0520 -0.2255
vn 0.6426 0.7484 -0.1642
vn 0.5998 -0.7814 -0.1722
vn -0.0000 -0.9880 -0.1542
vn 0.4458 0.8839 0.1414
vn 0.7968 0.5865 0.1456
vn 0.8877 0.4377 0.1429
vn -0.0000 0.9867 -0.1624
vn 0.8763 0.4778 -0.0622
vn 0.6686 0.6600 0.3427
vn 0.8456 0.5242 0.1011
vn 0.8455 0.5254 0.0959
vn 0.8443 0.5262 0.1015
vn 0.8805 0.2505 -0.4025
vn 0.8801 0.2598 -0.3974
vn 0.8805 0.2282 -0.4156
vn 0.1724 -0.9714 0.1633
vn 0.0790 -0.9813 0.1753
vn 0.3576 -0.9233 0.1403
vn 0.4849 0.8337 0.2642
vn 0.5667 0.7933 0.2223
vn 0.5415 0.8085 0.2303
vn 0.9811 -0.0685 -0.1811
vn 0.8543 0.5134 0.0815
vn 0.0144 0.9807 -0.1948
vn 0.1352 0.9703 -0.2007
vn 0.0528 0.9796 -0.1941
vn -0.1729 -0.9480 -0.2672
vn -0.4022 -0.8871 -0.2267
vn -0.1223 -0.9607 -0.2491
vn 0.0633 -0.9571 -0.2827
vn -0.0352 -0.9686 -0.2462
vn -0.0379 0.9816 -0.1871
vn -0.0233 0.9809 -0.1933
vn 0.4697 0.8430 0.2623
vn 0.4507 0.8451 0.2876
vn 0.4235 -0.8969 0.1274
vn 0.4199 -0.8975 0.1346
vn -0.0000 -0.9525 -0.3044
vn -0.5860 0.7252 -0.3615
vn -0.0000 0.9525 -0.3044
vn -0.0000 0.9919 -0.1274
vn 0.5825 -0.7859 -0.2075
vn 0.7443 0.6175 0.2543
vn 0.8138 0.5599 0.1556
vn 0.9018 0.3942 -0.1774
vn 0.8462 0.5244 0.0941
vn 0.8909 0.4467 -0.0829
vn 0.8818 0.2534 -0.3977
vn 0.8847 0.2446 -0.3967
vn 0.8854 0.2431 -0.3962
vn 0.8817 0.2645 -0.3907
vn 0.8808 0.2549 -0.3990
vn -0.2695 -0.9630 -0.0029
vn -0.2810 -0.9522 0.1198
vn -0.2944 -0.9482 0.1191
vn -0.9259 -0.2940 0.2372
vn -0.9758 0.0869 0.2004
vn -0.8877 0.4377 0.1429
vn -0.2997 -0.9487 0.1011
vn 0.9046 0.0602 -0.4220
vn 0.6409 -0.6769 -0.3620
vn -0.6768 0.7173 -0.1655
vn -0.9729 -0.0520 -0.2255
vn -0.9811 -0.0685 -0.1811
vn -0.5998 -0.7814 -0.1722
vn -0.2330 -0.9721 -0.0255
vn -0.4458 0.8839 0.1414
vn -0.7968 0.5865 0.1456
vn -0.9735 0.0444 0.2243
vn -0.8763 0.4778 -0.0622
vn -0.6686 0.6600 0.3427
vn -0.8455 0.5254 0.0959
vn -0.8456 0.5242 0.1011
vn -0.8443 0.5262 0.1015
vn -0.8801 0.2598 -0.3974
vn -0.8805 0.2505 -0.4025
vn -0.8805 0.2282 -0.4156
vn -0.1724 -0.9714 0.1633
vn -0.3576 -0.9233 0.1403
vn -0.0790 -0.9813 0.1753
vn -0.4849 0.8337 0.2642
vn -0.5415 0.8085 0.2303
vn -0.5667 0.7933 0.2223
vn -0.8543 0.5134 0.0815
vn -0.0144 0.9807 -0.1948
vn -0.0528 0.9796 -0.1941
vn -0.1352 0.9703 -0.2007
vn 0.1729 -0.9480 -0.2672
vn 0.1223 -0.9607 -0.2491
vn 0.4022 -0.8871 -0.2267
vn -0.0633 -0.9571 -0.2827
vn 0.0379 0.9816 -0.1871
vn 0.0233 0.9809 -0.1933
vn -0.4697 0.8430 0.2623
vn -0.4507 0.8451 0.2876
vn -0.4235 -0.8969 0.1274
vn 0.5860 0.7252 -0.3615
vn -0.6426 0.7484 -0.1642
vn -0.5825 -0.7859 -0.2075
vn -0.7443 0.6175 0.2543
vn -0.8138 0.5599 0.1556
vn -0.9018 0.3942 -0.1774
vn -0.8462 0.5244 0.0941
vn -0.8909 0.4467 -0.0829
vn -0.8847 0.2446 -0.3967
vn -0.8818 0.2534 -0.3977
vn -0.8854 0.2431 -0.3962
vn -0.8817 0.2645 -0.3907
vn -0.0000 -0.9829 -0.1841
vn 0.0352 -0.9686 -0.2462
vn -0.4199 -0.8975 0.1346
vn -0.8808 0.2549 -0.3990
vt 0.058822 0.150374
vt 0.076348 0.109066
vt 0.079127 0.154179
vt 0.055602 0.023384
vt 0.050349 0.059542
vt 0.046273 0.011764
vt 0.054301 0.105894
vt 0.164192 0.097311
vt 0.146568 0.123530
vt 0.157199 0.094502
vt 0.104347 0.085974
vt 0.099965 0.086528
vt 0.099693 0.071734
vt 0.034716 0.208453
vt 0.044159 0.228146
vt 0.036877 0.228987
vt 0.053992 0.202014
vt 0.069803 0.204952
vt 0.014711 0.123541
vt 0.023469 0.143446
vt 0.103384 0.100922
vt 0.018102 0.205714
vt 0.026351 0.169785
vt 0.034071 0.202361
vt 0.145592 0.028428
vt 0.158578 0.039328
vt 0.145592 0.062106
vt 0.151219 0.057398
vt 0.164740 0.036174
vt 0.164740 0.057585
vt 0.159765 0.037421
vt 0.145592 0.061639
vt 0.145592 0.029476
vt 0.167459 0.155607
vt 0.242525 0.218753
vt 0.141058 0.158655
vt 0.132692 0.177632
vt 0.233233 0.235381
vt 0.141524 0.206560
vt 0.045170 0.201444
vt 0.034702 0.154459
vt 0.154339 0.232206
vt 0.202146 0.151963
vt 0.199496 0.135825
vt 0.163971 0.149600
vt 0.146600 0.135605
vt 0.135463 0.206216
vt 0.140608 0.239077
vt 0.115871 0.199256
vt 0.126395 0.176515
vt 0.096934 0.153386
vt 0.137570 0.152648
vt 0.106709 0.136532
vt 0.146568 0.093462
vt 0.168340 0.101479
vt 0.173723 0.110618
vt 0.021013 0.211894
vt 0.026801 0.231517
vt 0.065959 0.211523
vt 0.049849 0.228724
vt 0.052355 0.208095
vt 0.044618 0.207310
vt 0.126190 0.055904
vt 0.119013 0.039471
vt 0.119189 0.037214
vt 0.102301 0.069061
vt 0.125014 0.055492
vt 0.104954 0.084835
vt 0.125231 0.057592
vt 0.100828 0.072163
vt 0.126190 0.079809
vt 0.125238 0.079096
vt 0.115564 0.112417
vt 0.116013 0.114281
vt 0.105231 0.086690
vt 0.104355 0.100568
vt 0.124766 0.081225
vt 0.198658 0.145956
vt 0.144400 0.030044
vt 0.163372 0.051051
vt 0.148622 0.232549
vt 0.059853 0.231244
s 1
f 2/1/1 11/2/2 18/3/3
f 5/4/4 19/5/5 4/6/6
f 11/2/2 8/7/7 5/4/8
f 29/8/9 28/9/10 30/10/11
f 14/11/12 15/12/12 1/13/12
f 7/14/13 29/15/14 30/16/15
f 6/17/16 18/3/3 3/18/17
f 10/19/18 4/6/6 13/20/19
f 13/20/19 19/5/5 8/7/20
f 9/21/12 15/12/12 14/11/12
f 17/22/21 16/23/22 7/24/13
f 32/25/23 33/26/23 34/27/23
f 36/28/24 38/29/25 35/30/26
f 40/31/27 42/32/28 39/33/29
f 24/34/30 21/35/31 23/36/32
f 23/37/33 21/38/34 22/39/35
f 2/1/1 6/17/16 12/40/36
f 13/20/19 8/7/20 20/41/37
f 16/23/22 13/20/19 20/41/37
f 7/24/13 16/23/22 12/40/36
f 20/41/37 12/40/36 16/23/22
f 22/39/38 21/38/39 25/42/40
f 25/43/41 21/35/42 24/34/43
f 12/44/44 24/45/43 2/46/45
f 22/47/38 12/48/46 20/49/47
f 23/50/33 20/49/48 8/51/49
f 2/46/50 23/52/32 8/53/51
f 30/10/11 28/9/10 31/54/52
f 28/9/10 26/55/53 27/56/54
f 26/55/53 28/9/10 29/8/9
f 17/57/21 30/16/15 31/58/55
f 3/59/17 26/60/56 6/61/16
f 6/61/16 29/15/14 12/62/36
f 13/63/57 32/64/23 10/65/23
f 13/63/57 34/66/23 33/67/23
f 10/65/23 34/66/23 1/13/58
f 1/13/58 35/68/26 14/11/59
f 1/13/58 37/69/60 36/70/24
f 16/71/61 37/69/60 13/63/57
f 16/71/61 35/68/26 38/72/25
f 9/21/62 39/73/63 17/74/64
f 9/21/62 41/75/65 40/76/66
f 14/11/59 42/77/28 41/75/65
f 17/74/64 42/77/28 16/71/61
f 43/1/67 11/2/68 46/7/69
f 5/4/70 51/5/71 46/7/72
f 11/2/68 5/4/73 46/7/69
f 59/8/74 60/10/75 28/9/10
f 49/11/12 1/13/12 15/12/12
f 45/14/76 59/15/77 47/62/78
f 44/17/79 18/3/80 43/1/67
f 10/19/81 48/20/82 4/6/83
f 51/5/71 48/20/82 46/7/72
f 9/21/12 49/11/12 15/12/12
f 17/22/21 45/24/76 50/23/84
f 61/25/85 63/27/85 62/26/85
f 67/29/86 65/28/87 64/30/88
f 71/32/89 69/31/90 68/33/91
f 56/34/92 55/36/93 53/35/94
f 55/37/95 54/39/96 53/38/97
f 43/1/67 47/40/78 44/17/79
f 48/20/82 52/41/98 46/7/72
f 50/23/84 52/41/98 48/20/82
f 45/24/76 47/40/78 50/23/84
f 52/41/98 50/23/84 47/40/78
f 54/39/99 57/42/100 53/38/101
f 57/43/102 56/34/103 53/35/104
f 47/44/105 56/45/103 57/78/102
f 47/48/106 54/47/99 52/49/107
f 52/49/108 55/50/95 46/51/109
f 43/46/110 55/52/93 56/45/92
f 60/10/75 31/54/52 28/9/10
f 28/9/10 27/56/54 58/55/111
f 58/55/111 59/8/74 28/9/10
f 17/57/21 60/16/112 45/14/76
f 58/60/113 3/59/17 44/61/79
f 59/15/77 44/61/79 47/62/78
f 61/64/85 48/63/114 10/65/85
f 48/63/114 63/66/85 1/13/115
f 63/66/85 10/65/85 1/13/115
f 64/68/88 1/13/115 49/11/116
f 1/13/115 66/69/117 48/63/114
f 66/69/117 50/71/118 48/63/114
f 50/71/118 64/68/88 49/11/116
f 68/73/119 9/21/120 17/74/121
f 9/21/120 70/75/122 49/11/116
f 49/11/116 71/77/89 50/71/118
f 71/77/89 17/74/121 50/71/118
f 2/1/1 8/7/7 11/2/2
f 5/4/4 8/7/20 19/5/5
f 7/14/13 12/62/36 29/15/14
f 6/17/16 2/1/1 18/3/3
f 13/20/19 4/6/6 19/5/5
f 36/28/24 37/79/60 38/29/25
f 40/31/27 41/80/65 42/32/28
f 12/44/44 25/78/41 24/45/43
f 22/47/38 25/81/40 12/48/46
f 23/50/33 22/47/35 20/49/48
f 2/46/50 24/45/30 23/52/32
f 17/57/21 7/14/13 30/16/15
f 3/59/17 27/82/123 26/60/56
f 6/61/16 26/60/56 29/15/14
f 13/63/57 33/67/23 32/64/23
f 13/63/57 1/13/58 34/66/23
f 10/65/23 32/64/23 34/66/23
f 1/13/58 36/70/24 35/68/26
f 1/13/58 13/63/57 37/69/60
f 16/71/61 38/72/25 37/69/60
f 16/71/61 14/11/59 35/68/26
f 9/21/62 40/76/66 39/73/63
f 9/21/62 14/11/59 41/75/65
f 14/11/59 16/71/61 42/77/28
f 17/74/64 39/73/63 42/77/28
f 43/1/67 18/3/80 11/2/68
f 5/4/70 4/6/83 51/5/71
f 45/14/76 60/16/112 59/15/77
f 44/17/79 3/18/17 18/3/80
f 51/5/71 4/6/83 48/20/82
f 67/29/86 66/79/117 65/28/87
f 71/32/89 70/80/122 69/31/90
f 47/44/105 43/46/124 56/45/103
f 47/48/106 57/81/100 54/47/99
f 52/49/108 54/47/96 55/50/95
f 43/46/110 46/53/125 55/52/93
f 17/57/21 31/58/55 60/16/112
f 58/60/113 27/82/123 3/59/17
f 59/15/77 58/60/113 44/61/79
f 61/64/85 62/67/85 48/63/114
f 48/63/114 62/67/85 63/66/85
f 63/66/85 61/64/85 10/65/85
f 64/68/88 65/70/87 1/13/115
f 1/13/115 65/70/87 66/69/117
f 66/69/117 67/72/86 50/71/118
f 50/71/118 67/72/86 64/68/88
f 68/73/119 69/76/126 9/21/120
f 9/21/120 69/76/126 70/75/122
f 49/11/116 70/75/122 71/77/89
f 71/77/89 68/73/119 17/74/121
